<?xml version="1.0" encoding="UTF-8"?>
<svg width="48px" height="48px" viewBox="0 0 48 48" version="1.1" xmlns="http://www.w3.org/2000/svg" xmlns:xlink="http://www.w3.org/1999/xlink">
    <title>logo (1)</title>
    <g id="Page-1" stroke="none" stroke-width="1" fill="none" fill-rule="evenodd">
        <g id="logo-(1)" transform="translate(1.111120, 1.111130)" stroke-width="2.22222">
            <path d="M0,10.88887 C0,10.83397 0.01996,10.77267 0.08033,10.71007 C0.14455,10.64337 0.24295,10.59017 0.35678,10.57597 C5.68874,9.91247 9.91248,5.68875 10.57598,0.35679 C10.59018,0.24296 10.64338,0.14456 10.70998,0.08034 C10.77268,0.01997 10.83388,0 10.88888,0 C10.94388,0 11.00508,0.01996 11.06778,0.08034 C11.13438,0.14456 11.18768,0.24296 11.20178,0.35679 C11.87998,5.80664 16.27918,10.10057 21.77778,10.61497 L21.77778,11.16287 C16.15988,11.68857 11.68848,16.15997 11.16288,21.77777 L10.61498,21.77777 C10.10048,16.27917 5.80665,11.88007 0.35678,11.20187 C0.24295,11.18767 0.14455,11.13447 0.08033,11.06777 C0.01996,11.00507 0,10.94387 0,10.88887 Z" id="Path" stroke="#E5B22C"></path>
            <path d="M0,34.88887 C0,34.83397 0.01996,34.77267 0.08033,34.71007 C0.14455,34.64337 0.24295,34.59017 0.35678,34.57597 C5.80667,33.89777 10.10058,29.49857 10.61498,23.99997 L11.16288,23.99997 C11.68848,29.61777 16.15988,34.08927 21.77778,34.61497 L21.77778,35.16287 C16.27918,35.67727 11.88008,39.97117 11.20178,45.42097 C11.18768,45.53477 11.13438,45.63317 11.06778,45.69737 C11.00508,45.75777 10.94388,45.77777 10.88888,45.77777 C10.83388,45.77777 10.77268,45.75777 10.70998,45.69737 C10.64338,45.63317 10.59008,45.53477 10.57598,45.42097 C9.91238,40.08907 5.68872,35.86537 0.35678,35.20187 C0.24295,35.18767 0.14455,35.13447 0.08033,35.06777 C0.01996,35.00507 0,34.94387 0,34.88887 Z" id="Path" stroke="#3E54E0"></path>
            <path d="M23.99998,34.61497 C29.61788,34.08927 34.08928,29.61787 34.61498,23.99997 L35.16278,23.99997 C35.67728,29.49857 39.97108,33.89777 45.42098,34.57597 C45.53478,34.59017 45.63318,34.64337 45.69738,34.71007 C45.75778,34.77267 45.77778,34.83397 45.77778,34.88887 C45.77778,34.94387 45.75778,35.00507 45.69738,35.06777 C45.63318,35.13447 45.53478,35.18767 45.42098,35.20187 C40.08898,35.86537 35.86538,40.08907 35.20178,45.42097 C35.18768,45.53477 35.13438,45.63317 35.06778,45.69737 C35.00508,45.75777 34.94388,45.77777 34.88888,45.77777 C34.83388,45.77777 34.77268,45.75777 34.70998,45.69737 C34.64338,45.63317 34.59008,45.53477 34.57598,45.42097 C33.89778,39.97107 29.49858,35.67727 23.99998,35.16287 L23.99998,34.61497 Z" id="Path" stroke="#9FD330"></path>
            <path d="M23.99998,10.61497 C29.49858,10.10057 33.89778,5.80667 34.57598,0.35679 C34.59018,0.24296 34.64338,0.14456 34.70998,0.08034 C34.77268,0.01997 34.83388,0 34.88888,0 C34.94388,0 35.00508,0.01996 35.06778,0.08034 C35.13438,0.14456 35.18768,0.24296 35.20178,0.35679 C35.86538,5.68872 40.08898,9.91247 45.42098,10.57597 C45.53478,10.59017 45.63318,10.64337 45.69738,10.71007 C45.75778,10.77267 45.77778,10.83397 45.77778,10.88887 C45.77778,10.94387 45.75778,11.00507 45.69738,11.06777 C45.63318,11.13447 45.53478,11.18767 45.42098,11.20187 C39.97108,11.88007 35.67728,16.27927 35.16278,21.77777 L34.61498,21.77777 C34.08928,16.15997 29.61778,11.68857 23.99998,11.16287 L23.99998,10.61497 Z" id="Path" stroke="#EA4A4A"></path>
        </g>
    </g>
</svg>